<svg width="228" height="75" viewBox="0 0 228 75" fill="none" xmlns="http://www.w3.org/2000/svg">
<path d="M21.204 31.832H9.956L7.866 37H0.19L11.932 10.4H19.342L31.122 37H23.294L21.204 31.832ZM19 26.284L15.58 17.772L12.16 26.284H19ZM50.3583 26.208C52.7143 26.9933 53.8923 28.6147 53.8923 31.072C53.8923 32.9213 53.1703 34.378 51.7263 35.442C50.2823 36.4807 48.1543 37 45.3423 37H33.7523V16.404H44.8103C47.4956 16.404 49.573 16.8727 51.0423 17.81C52.537 18.7473 53.2843 20.0647 53.2843 21.762C53.2843 22.75 53.031 23.624 52.5243 24.384C52.0176 25.144 51.2956 25.752 50.3583 26.208ZM40.2123 24.688H44.1643C45.8363 24.688 46.6723 24.0673 46.6723 22.826C46.6723 21.6353 45.8363 21.04 44.1643 21.04H40.2123V24.688ZM44.6963 32.326C46.4443 32.326 47.3183 31.6927 47.3183 30.426C47.3183 29.1593 46.4696 28.526 44.7723 28.526H40.2123V32.326H44.6963ZM75.9314 22.142H69.3194V37H62.1374V22.142H55.4874V16.404H75.9314V22.142ZM88.0585 37.342C85.8545 37.342 83.8658 36.886 82.0925 35.974C80.3191 35.062 78.9258 33.7953 77.9125 32.174C76.9245 30.5527 76.4305 28.716 76.4305 26.664C76.4305 24.6373 76.9245 22.8133 77.9125 21.192C78.9258 19.5707 80.3065 18.3167 82.0545 17.43C83.8278 16.518 85.8291 16.062 88.0585 16.062C90.2878 16.062 92.2891 16.518 94.0625 17.43C95.8358 18.3167 97.2165 19.5707 98.2045 21.192C99.1925 22.788 99.6865 24.612 99.6865 26.664C99.6865 28.716 99.1925 30.5527 98.2045 32.174C97.2165 33.7953 95.8358 35.062 94.0625 35.974C92.2891 36.886 90.2878 37.342 88.0585 37.342ZM88.0585 31.604C89.3251 31.604 90.3638 31.1733 91.1745 30.312C91.9851 29.4253 92.3905 28.2093 92.3905 26.664C92.3905 25.144 91.9851 23.9533 91.1745 23.092C90.3638 22.2307 89.3251 21.8 88.0585 21.8C86.7918 21.8 85.7531 22.2307 84.9425 23.092C84.1318 23.9533 83.7265 25.144 83.7265 26.664C83.7265 28.2093 84.1318 29.4253 84.9425 30.312C85.7531 31.1733 86.7918 31.604 88.0585 31.604ZM113.409 37.342C111.129 37.342 109.089 36.886 107.291 35.974C105.492 35.062 104.086 33.7953 103.073 32.174C102.085 30.5527 101.591 28.716 101.591 26.664C101.591 24.612 102.085 22.788 103.073 21.192C104.086 19.5707 105.492 18.3167 107.291 17.43C109.089 16.518 111.129 16.062 113.409 16.062C115.739 16.062 117.753 16.5687 119.451 17.582C121.148 18.57 122.351 19.9507 123.061 21.724L117.475 24.574C116.537 22.7247 115.169 21.8 113.371 21.8C112.079 21.8 111.002 22.2307 110.141 23.092C109.305 23.9533 108.887 25.144 108.887 26.664C108.887 28.2093 109.305 29.4253 110.141 30.312C111.002 31.1733 112.079 31.604 113.371 31.604C115.169 31.604 116.537 30.6793 117.475 28.83L123.061 31.68C122.351 33.4533 121.148 34.8467 119.451 35.86C117.753 36.848 115.739 37.342 113.409 37.342ZM134.478 16.062C137.898 16.062 140.508 16.8473 142.306 18.418C144.105 19.9633 145.004 22.3447 145.004 25.562V37H138.278V34.34C137.24 36.3413 135.213 37.342 132.198 37.342C130.602 37.342 129.222 37.0633 128.056 36.506C126.891 35.9487 126.004 35.2013 125.396 34.264C124.814 33.3013 124.522 32.212 124.522 30.996C124.522 29.0453 125.27 27.538 126.764 26.474C128.259 25.3847 130.564 24.84 133.68 24.84H137.784C137.658 22.6613 136.201 21.572 133.414 21.572C132.426 21.572 131.426 21.7367 130.412 22.066C129.399 22.37 128.538 22.8007 127.828 23.358L125.396 18.456C126.536 17.696 127.917 17.1133 129.538 16.708C131.185 16.2773 132.832 16.062 134.478 16.062ZM134.212 32.782C135.048 32.782 135.783 32.5793 136.416 32.174C137.05 31.7687 137.506 31.1733 137.784 30.388V28.602H134.668C132.566 28.602 131.514 29.2987 131.514 30.692C131.514 31.3253 131.755 31.832 132.236 32.212C132.718 32.592 133.376 32.782 134.212 32.782ZM170.324 16.404V37H163.104V22.142H157.898L157.746 25.296C157.645 27.9813 157.379 30.198 156.948 31.946C156.517 33.694 155.808 35.062 154.82 36.05C153.832 37.0127 152.477 37.494 150.754 37.494C149.867 37.494 148.702 37.3293 147.258 37L147.562 31.11C148.018 31.1607 148.322 31.186 148.474 31.186C149.259 31.186 149.855 30.9327 150.26 30.426C150.665 29.9193 150.944 29.248 151.096 28.412C151.248 27.5507 151.349 26.4107 151.4 24.992L151.704 16.404H170.324ZM185.322 37.342C183.118 37.342 181.129 36.886 179.356 35.974C177.583 35.062 176.189 33.7953 175.176 32.174C174.188 30.5527 173.694 28.716 173.694 26.664C173.694 24.6373 174.188 22.8133 175.176 21.192C176.189 19.5707 177.57 18.3167 179.318 17.43C181.091 16.518 183.093 16.062 185.322 16.062C187.551 16.062 189.553 16.518 191.326 17.43C193.099 18.3167 194.48 19.5707 195.468 21.192C196.456 22.788 196.95 24.612 196.95 26.664C196.95 28.716 196.456 30.5527 195.468 32.174C194.48 33.7953 193.099 35.062 191.326 35.974C189.553 36.886 187.551 37.342 185.322 37.342ZM185.322 31.604C186.589 31.604 187.627 31.1733 188.438 30.312C189.249 29.4253 189.654 28.2093 189.654 26.664C189.654 25.144 189.249 23.9533 188.438 23.092C187.627 22.2307 186.589 21.8 185.322 21.8C184.055 21.8 183.017 22.2307 182.206 23.092C181.395 23.9533 180.99 25.144 180.99 26.664C180.99 28.2093 181.395 29.4253 182.206 30.312C183.017 31.1733 184.055 31.604 185.322 31.604ZM200.336 16.404H207.518V24.042H214.928V16.404H222.148V37H214.928V29.78H207.518V37H200.336V16.404Z" fill="white"/>
<path d="M60.248 64.496C60.248 64.88 59.9493 65.6053 59.352 66.672C58.7973 67.7387 58.1573 68.272 57.432 68.272C57.3467 68.1867 57.304 68.1227 57.304 68.08C57.9867 67.3973 58.456 66.736 58.712 66.096C59.0107 65.4987 59.16 65.0933 59.16 64.88C59.16 62.8747 56.5147 61.872 51.224 61.872C47.7253 61.872 42.9253 62.7893 36.824 64.624C36.824 65.392 36.9733 66.3307 37.272 67.44C37.6133 68.5493 37.784 69.1253 37.784 69.168C37.784 69.2533 37.7413 69.296 37.656 69.296C36.12 69.296 35.288 67.888 35.16 65.072C34.4773 65.2853 33.304 65.6693 31.64 66.224C31.256 66.224 31.064 65.9467 31.064 65.392C31.064 64.1547 31.2347 63.3867 31.576 63.088C31.96 62.832 33.2613 62.4693 35.48 62C35.9493 58.3307 37.2507 53.808 39.384 48.432C41.5173 43.056 43.8853 38.3413 46.488 34.288C49.1333 30.2347 51.2453 28.208 52.824 28.208C53.848 28.208 54.872 28.528 55.896 29.168C56.9627 29.808 57.496 30.4907 57.496 31.216C57.496 32.624 56.3013 35.1413 53.912 38.768C51.5227 42.3947 48.5787 46.256 45.08 50.352C44.952 50.6507 44.4827 51.2907 43.672 52.272C42.904 53.2107 42.392 53.68 42.136 53.68L41.944 53.552C41.944 53.3813 43.1173 51.8027 45.464 48.816C52.12 40.24 55.448 34.5227 55.448 31.664C55.448 30.8107 55.1707 30.384 54.616 30.384C53.8907 30.384 52.9947 31.1307 51.928 32.624C48.6853 37.2747 45.656 42.3947 42.84 47.984C40.0667 53.5307 38.2533 58.0747 37.4 61.616C42.3067 60.592 46.744 60.08 50.712 60.08C57.0693 60.08 60.248 61.552 60.248 64.496ZM75.3795 48.688L73.7795 48.432C73.8648 49.2853 73.9075 49.968 73.9075 50.48C73.9075 54.0213 73.0115 57.1573 71.2195 59.888C69.4275 62.576 67.1875 63.92 64.4995 63.92C61.0435 63.92 59.3155 62.1067 59.3155 58.48C59.3155 57.0293 59.6355 55.4933 60.2755 53.872C60.9582 52.208 61.7902 50.864 62.7715 49.84C62.3022 49.072 62.0675 48.0693 62.0675 46.832C62.0675 45.5947 62.5795 44.4853 63.6035 43.504C64.6275 42.48 65.8862 41.968 67.3795 41.968C70.1955 41.968 72.0728 43.4187 73.0115 46.32C75.0168 46.704 76.0195 47.1733 76.0195 47.728C76.0195 48.368 75.8062 48.688 75.3795 48.688ZM66.6115 43.76C65.7155 43.76 64.9688 44.1653 64.3715 44.976C63.7742 45.7867 63.4755 46.6187 63.4755 47.472C63.4755 48.2827 63.5395 48.88 63.6675 49.264C66.5688 47.088 68.5742 46 69.6835 46H69.8755C69.3208 44.5067 68.2328 43.76 66.6115 43.76ZM65.9075 51.44C66.3342 51.7387 66.6755 51.888 66.9315 51.888C67.1875 51.8453 67.3368 51.824 67.3795 51.824C67.5928 51.824 67.6995 51.9307 67.6995 52.144C67.6995 52.4853 67.4008 52.656 66.8035 52.656C66.2488 52.656 65.7368 52.5067 65.2675 52.208C63.0062 54.8533 61.8755 57.3493 61.8755 59.696C61.8755 62 62.7288 63.152 64.4355 63.152C66.1848 63.152 67.8275 61.7867 69.3635 59.056C70.8995 56.2827 71.6675 53.6373 71.6675 51.12C71.6675 50.0107 71.4755 49.1147 71.0915 48.432C69.4702 48.688 67.7422 49.6907 65.9075 51.44ZM85.773 43.568C86.0717 43.568 86.669 44.016 87.565 44.912C88.461 45.808 88.909 46.384 88.909 46.64C88.909 46.8533 88.8023 46.96 88.589 46.96C87.6503 46.7467 87.053 46.64 86.797 46.64C84.877 46.64 82.893 47.344 80.845 48.752C78.8397 50.16 77.837 51.5893 77.837 53.04C77.837 53.3387 78.8397 54.64 80.845 56.944C82.8503 59.2053 83.853 60.7627 83.853 61.616C83.853 62.4267 83.2557 63.2587 82.061 64.112C80.8663 64.9653 79.6503 65.392 78.413 65.392C77.2183 65.392 76.1943 65.2 75.341 64.816C74.4877 64.4747 74.061 64.112 74.061 63.728C78.9677 62.704 81.421 61.4667 81.421 60.016C81.421 59.7173 80.845 59.056 79.693 58.032C77.4743 56.0693 76.365 53.872 76.365 51.44C76.365 49.7333 77.453 48.0053 79.629 46.256C81.8477 44.464 83.8957 43.568 85.773 43.568ZM126.778 34.224C126.778 33.84 126.244 33.648 125.178 33.648C122.618 33.648 119.866 34.1173 116.922 35.056C113.978 35.952 111.439 37.2107 109.306 38.832C107.215 40.4533 106.17 42.0747 106.17 43.696C106.17 45.2747 108.026 48.0053 111.738 51.888C115.45 55.7707 117.306 58.6933 117.306 60.656C117.306 62.064 116.602 63.2373 115.194 64.176C113.786 65.1147 112.1 65.584 110.138 65.584H108.538C104.442 65.584 101.583 64.3253 99.9615 61.808L100.09 61.424C101.924 62.2773 103.887 62.704 105.978 62.704C108.068 62.704 110.138 62.2987 112.186 61.488C114.276 60.6773 115.322 59.7173 115.322 58.608C115.322 57.968 114.404 56.6667 112.57 54.704C109.028 50.992 106.81 48.4747 105.914 47.152C105.06 45.8293 104.634 44.2507 104.634 42.416C104.634 37.68 109.05 34.16 117.882 31.856C121.807 30.96 124.047 30.512 124.602 30.512C125.156 30.512 125.668 30.576 126.138 30.704L127.738 32.368C128.42 33.136 128.804 33.776 128.89 34.288C128.89 35.184 127.738 36.2507 125.434 37.488C123.172 38.6827 121.786 39.28 121.274 39.28L121.21 38.96L124.474 36.72C126.01 35.696 126.778 34.864 126.778 34.224ZM136.529 63.856L137.169 63.728L137.297 63.792C137.297 64.176 136.763 64.368 135.697 64.368C134.673 64.368 133.819 63.8987 133.137 62.96C132.497 62.0213 132.177 60.7627 132.177 59.184C132.177 57.5627 132.475 55.728 133.073 53.68C133.073 53.808 132.497 54.6827 131.345 56.304C127.846 61.7227 125.094 64.432 123.089 64.432C122.235 64.432 121.446 64.0267 120.721 63.216C120.038 62.448 119.697 61.4453 119.697 60.208C119.697 58.928 120.443 57.008 121.937 54.448C123.473 51.8453 125.307 49.5413 127.441 47.536C129.574 45.5307 131.409 44.528 132.945 44.528H133.585C135.163 44.528 136.507 44.848 137.617 45.488C138.726 46.0853 139.281 46.896 139.281 47.92C139.281 48.3893 139.089 48.624 138.705 48.624C138.577 48.624 138.513 48.56 138.513 48.432C137.787 46.8533 136.742 46.064 135.377 46.064C132.987 46.064 130.214 48.0693 127.057 52.08C123.942 56.048 122.385 59.0773 122.385 61.168C122.385 61.9787 122.598 62.384 123.025 62.384C124.945 62.384 128.977 58.0533 135.121 49.392C135.206 49.3067 135.334 49.264 135.505 49.264C135.718 49.264 136.166 49.4773 136.849 49.904C137.531 50.288 137.873 50.6293 137.873 50.928C137.873 50.928 137.574 51.4827 136.977 52.592C135.569 55.5787 134.865 58.2027 134.865 60.464C134.865 62.7253 135.419 63.856 136.529 63.856ZM157.151 45.68C157.151 45.5093 157.044 45.616 156.831 46C155.636 48.176 154.57 50.8 153.631 53.872C152.692 56.944 152.223 58.9493 152.223 59.888C152.223 62.4907 152.692 63.792 153.631 63.792C153.93 63.792 154.314 63.5787 154.783 63.152C155.295 62.768 155.508 62.576 155.423 62.576C155.551 62.576 155.615 62.7467 155.615 63.088C155.615 64.1973 154.975 64.752 153.695 64.752C152.415 64.752 151.434 64.176 150.751 63.024C150.068 61.9147 149.727 60.3147 149.727 58.224C149.727 56.1333 150.282 53.3813 151.391 49.968C152.5 46.512 153.567 44.784 154.591 44.784H154.911C156.404 44.784 157.151 45.0827 157.151 45.68ZM152.159 46.32C152.202 46.3627 152.223 46.448 152.223 46.576C152.223 46.6613 152.052 46.9173 151.711 47.344C147.103 52.9333 143.903 57.712 142.111 61.68L141.535 63.344C141.279 63.8133 140.959 64.048 140.575 64.048C140.191 64.048 139.764 63.9413 139.295 63.728C138.826 63.5147 138.591 63.2587 138.591 62.96C138.591 62.2347 139.295 59.6747 140.703 55.28C142.111 50.8427 142.815 47.5147 142.815 45.296C142.815 44.6987 142.666 44.336 142.367 44.208C142.068 44.08 141.77 44.0373 141.471 44.08C141.172 44.08 141.023 43.9733 141.023 43.76C141.023 43.376 141.343 43.184 141.983 43.184C144.842 43.184 146.271 44.3573 146.271 46.704C146.271 47.6 145.247 51.0773 143.199 57.136C145.076 54.192 146.89 51.6533 148.639 49.52C150.388 47.3867 151.562 46.32 152.159 46.32ZM164.619 38L163.339 38.32C163.211 38.32 163.147 38.256 163.147 38.128C163.147 37.7867 163.403 37.5307 163.915 37.36C164.427 37.1467 164.811 37.04 165.067 37.04C166.944 37.04 167.883 38.1067 167.883 40.24C167.883 41.52 167.499 43.1413 166.731 45.104C166.902 45.2747 167.67 45.36 169.035 45.36C170.4 45.36 171.467 45.2107 172.235 44.912C173.003 44.5707 173.451 44.4 173.579 44.4C173.75 44.4 173.835 44.464 173.835 44.592C173.835 44.72 173.75 44.8693 173.579 45.04C171.574 46.7467 169.12 47.792 166.219 48.176C165.963 48.176 165.664 48.24 165.323 48.368C161.44 56.1333 159.499 61.04 159.499 63.088C159.499 63.7707 159.755 64.112 160.267 64.112L162.059 63.728L162.123 63.792C162.123 64.688 161.419 65.136 160.011 65.136C158.134 65.136 157.195 64.1333 157.195 62.128C157.195 60.4213 157.792 58.0533 158.987 55.024C159.67 53.488 160.672 51.1413 161.995 47.984C160.544 47.3867 159.819 46.5547 159.819 45.488C159.819 45.1467 159.904 44.912 160.075 44.784C160.758 45.0827 161.739 45.296 163.019 45.424C164.427 42.3093 165.131 40.304 165.131 39.408C165.131 38.4693 164.96 38 164.619 38ZM184.13 48.688L182.53 48.432C182.615 49.2853 182.658 49.968 182.658 50.48C182.658 54.0213 181.762 57.1573 179.97 59.888C178.178 62.576 175.938 63.92 173.25 63.92C169.794 63.92 168.066 62.1067 168.066 58.48C168.066 57.0293 168.386 55.4933 169.026 53.872C169.708 52.208 170.54 50.864 171.522 49.84C171.052 49.072 170.818 48.0693 170.818 46.832C170.818 45.5947 171.33 44.4853 172.354 43.504C173.378 42.48 174.636 41.968 176.13 41.968C178.946 41.968 180.823 43.4187 181.762 46.32C183.767 46.704 184.77 47.1733 184.77 47.728C184.77 48.368 184.556 48.688 184.13 48.688ZM175.362 43.76C174.466 43.76 173.719 44.1653 173.122 44.976C172.524 45.7867 172.226 46.6187 172.226 47.472C172.226 48.2827 172.29 48.88 172.418 49.264C175.319 47.088 177.324 46 178.434 46H178.626C178.071 44.5067 176.983 43.76 175.362 43.76ZM174.658 51.44C175.084 51.7387 175.426 51.888 175.682 51.888C175.938 51.8453 176.087 51.824 176.13 51.824C176.343 51.824 176.45 51.9307 176.45 52.144C176.45 52.4853 176.151 52.656 175.554 52.656C174.999 52.656 174.487 52.5067 174.018 52.208C171.756 54.8533 170.626 57.3493 170.626 59.696C170.626 62 171.479 63.152 173.186 63.152C174.935 63.152 176.578 61.7867 178.114 59.056C179.65 56.2827 180.418 53.6373 180.418 51.12C180.418 50.0107 180.226 49.1147 179.842 48.432C178.22 48.688 176.492 49.6907 174.658 51.44ZM194.523 43.568C194.822 43.568 195.419 44.016 196.315 44.912C197.211 45.808 197.659 46.384 197.659 46.64C197.659 46.8533 197.552 46.96 197.339 46.96C196.4 46.7467 195.803 46.64 195.547 46.64C193.627 46.64 191.643 47.344 189.595 48.752C187.59 50.16 186.587 51.5893 186.587 53.04C186.587 53.3387 187.59 54.64 189.595 56.944C191.6 59.2053 192.603 60.7627 192.603 61.616C192.603 62.4267 192.006 63.2587 190.811 64.112C189.616 64.9653 188.4 65.392 187.163 65.392C185.968 65.392 184.944 65.2 184.091 64.816C183.238 64.4747 182.811 64.112 182.811 63.728C187.718 62.704 190.171 61.4667 190.171 60.016C190.171 59.7173 189.595 59.056 188.443 58.032C186.224 56.0693 185.115 53.872 185.115 51.44C185.115 49.7333 186.203 48.0053 188.379 46.256C190.598 44.464 192.646 43.568 194.523 43.568Z" fill="#8CFF9F"/>
</svg>
