<svg width="51" height="52" viewBox="0 0 51 52" fill="none" xmlns="http://www.w3.org/2000/svg">
<g clip-path="url(#clip0)">
<path d="M15.2428 44.166H9.9746C9.14693 44.166 8.47559 44.8492 8.47559 45.6914V50.3732C8.47559 51.2159 9.14693 51.8987 9.9746 51.8987H15.2428C16.0705 51.8987 16.7414 51.2159 16.7414 50.3732V45.6914C16.7414 44.8492 16.0705 44.166 15.2428 44.166Z" fill="#3F3F5E"/>
<path d="M40.8254 44.166H35.5576C34.7295 44.166 34.0586 44.8492 34.0586 45.6914V50.3732C34.0586 51.2159 34.7295 51.8987 35.5576 51.8987H40.8254C41.6535 51.8987 42.3244 51.2159 42.3244 50.3732V45.6914C42.3244 44.8492 41.6535 44.166 40.8254 44.166Z" fill="#0C2344"/>
<path d="M38.9915 -0.101562H12.2408C11.4131 -0.101562 10.7422 0.581207 10.7422 1.42386V7.64893C10.7422 7.71756 10.7465 7.7858 10.7554 7.85364L11.6007 14.216C12.0202 17.3731 14.649 19.7539 17.7152 19.7539H33.5116C36.5821 19.7539 39.211 17.3696 39.6273 14.208L40.4769 7.75327C40.4854 7.68622 40.4901 7.61838 40.4901 7.55093V1.42386C40.4901 0.581207 39.8192 -0.101562 38.9915 -0.101562Z" fill="#8DEAFF"/>
<path d="M38.9922 -0.101562H25.9326V19.7539H33.5123C36.5828 19.7539 39.2117 17.3696 39.628 14.208L40.4775 7.75327C40.4861 7.68622 40.4908 7.61838 40.4908 7.55093V1.42386C40.4908 0.581207 39.8198 -0.101562 38.9922 -0.101562Z" fill="#73CAEF"/>
<path d="M45.2883 28.2827L44.1285 20.9349C43.7651 18.6311 42.2057 16.2662 40.1558 14.9098L40.0665 14.8506C39.5028 14.4769 38.9706 14.1238 38.1016 13.9116C37.987 13.8834 37.8696 13.8691 37.7515 13.8691H13.2815C13.0558 13.8691 12.8328 13.9211 12.6297 14.0211C12.1923 14.2361 11.1326 14.7657 10.7439 15.0383C8.79775 16.4042 7.31277 18.7148 6.96034 20.9258L5.80635 28.1684C5.79388 28.2474 5.78764 28.3271 5.78725 28.4069L5.73735 41.8599C5.73189 43.3092 6.2773 44.6672 7.27262 45.684C8.23986 46.6722 9.52055 47.2162 10.878 47.2162H40.1667C43.0014 47.2162 45.3074 44.8227 45.3074 41.8802V28.5247C45.3074 28.4438 45.3012 28.3628 45.2883 28.2827Z" fill="#FF3E51"/>
<path d="M45.2904 28.2827L44.1305 20.9349C43.7672 18.6311 42.2077 16.2662 40.1578 14.9098L40.0686 14.8506C39.5048 14.4769 38.9727 14.1238 38.1037 13.9116C37.9891 13.8834 37.8717 13.8691 37.7536 13.8691H25.9326V47.2166H40.1688C43.0034 47.2166 45.3095 44.8227 45.3095 41.8806V28.5247C45.3095 28.4438 45.3032 28.3628 45.2904 28.2827Z" fill="#DD0035"/>
<path d="M40.6252 27.7794L39.6907 21.8598C38.9823 17.3732 35.9636 16.7031 34.2272 16.7031H16.8519C15.117 16.7031 12.1006 17.372 11.3868 21.8519L10.457 27.687C10.4441 27.7679 10.4375 27.8496 10.4375 27.9309V38.0039C10.4375 38.8461 11.1088 39.5293 11.9365 39.5293H39.1453C39.9729 39.5293 40.6443 38.8461 40.6443 38.0039V28.0214C40.6443 27.9405 40.6377 27.8595 40.6252 27.7794Z" fill="#9D9DC4"/>
<path d="M40.6261 27.7794L39.6916 21.8598C38.9832 17.3732 35.9645 16.7031 34.2281 16.7031H25.9326V39.5293H39.1462C39.9738 39.5293 40.6452 38.8461 40.6452 38.0039V28.0214C40.6452 27.9405 40.6385 27.8595 40.6261 27.7794Z" fill="#6A6A9B"/>
<path d="M39.1455 40.1758C38.3178 40.1758 37.6465 40.8586 37.6465 41.7012V42.1773C37.6465 43.0195 38.3178 43.7023 39.1455 43.7023C39.9732 43.7023 40.6445 43.0195 40.6445 42.1773V41.7012C40.6445 40.8586 39.9732 40.1758 39.1455 40.1758Z" fill="#F4C500"/>
<path d="M11.9365 40.1758C11.1085 40.1758 10.4375 40.8586 10.4375 41.7012V42.1773C10.4375 43.0195 11.1085 43.7023 11.9365 43.7023C12.7642 43.7023 13.4351 43.0195 13.4351 42.1773V41.7012C13.4351 40.8586 12.7642 40.1758 11.9365 40.1758Z" fill="#F7D83E"/>
<path d="M28.4466 28.5864C27.6189 28.5864 26.948 27.9036 26.948 27.0613V25.0245C26.948 24.4552 26.4926 23.9919 25.9328 23.9919C25.3733 23.9919 24.918 24.4552 24.918 25.0245V27.0613C24.918 27.9036 24.2466 28.5864 23.4189 28.5864C22.5913 28.5864 21.9199 27.9036 21.9199 27.0613V25.0245C21.9199 22.7731 23.7203 20.9414 25.9328 20.9414C28.1456 20.9414 29.9456 22.7731 29.9456 25.0245V27.0613C29.9456 27.9036 29.2746 28.5864 28.4466 28.5864Z" fill="#E2E2F7"/>
<path d="M25.9326 20.9395V23.9903C26.4925 23.9903 26.9478 24.4537 26.9478 25.023V27.0594C26.9478 27.902 27.6188 28.5848 28.4464 28.5848C29.2745 28.5848 29.9455 27.902 29.9455 27.0594V25.023C29.9455 22.7715 28.1451 20.9395 25.9326 20.9395Z" fill="#C1C1E5"/>
<path d="M34.0767 25.8496H17.7875C16.86 25.8496 16.1084 26.6145 16.1084 27.5583V35.3171C16.1084 36.261 16.86 37.0258 17.7875 37.0258H34.0767C35.0042 37.0258 35.7558 36.261 35.7558 35.3171V27.5583C35.7558 26.6145 35.0042 25.8496 34.0767 25.8496Z" fill="#F7D83E"/>
<path d="M34.0776 25.8496H25.9326V37.0258H34.0776C35.0051 37.0258 35.7567 36.261 35.7567 35.3171V27.5583C35.7567 26.6145 35.0051 25.8496 34.0776 25.8496Z" fill="#F4C500"/>
<path d="M38.9915 -0.101562H12.2408C11.4131 -0.101562 10.7422 0.581207 10.7422 1.42386V6.42581H40.4901V1.42386C40.4901 0.581207 39.8192 -0.101562 38.9915 -0.101562Z" fill="#FF3E51"/>
<path d="M38.9922 -0.101562H25.9326V6.42581H40.4908V1.42386C40.4908 0.581207 39.8198 -0.101562 38.9922 -0.101562Z" fill="#DD0035"/>
</g>
<defs>
<clipPath id="clip0">
<rect width="51" height="52" fill="white"/>
</clipPath>
</defs>
</svg>
