<svg width="16" height="16" viewBox="0 0 16 16" fill="none" xmlns="http://www.w3.org/2000/svg">
<path d="M10.2959 8.46826C10.2157 7.91516 10.0016 7.40942 9.68079 6.98108L9.05054 7.61133L8.3877 6.94849L9.01794 6.31824C8.5896 5.99744 8.08386 5.78333 7.53076 5.70312V6.59326H6.59326V5.70312C6.04016 5.78333 5.53442 5.99744 5.10608 6.31824L5.73633 6.94849L5.07349 7.61133L4.44324 6.98108C4.12244 7.40942 3.90833 7.91516 3.82812 8.46826H4.71826V9.40576H3.82812C3.90833 9.95886 4.12244 10.4646 4.44324 10.8929L5.07349 10.2627L5.73633 10.9255L5.10608 11.5558C5.53442 11.8766 6.04016 12.0907 6.59326 12.1709V11.2808H7.53076V12.1709C8.08386 12.0907 8.5896 11.8766 9.01794 11.5558L8.3877 10.9255L9.05054 10.2627L9.68079 10.8929C10.0016 10.4646 10.2157 9.95886 10.2959 9.40576H9.40576V8.46826H10.2959ZM7.06201 10.3433C6.28662 10.3433 5.65576 9.7124 5.65576 8.93701C5.65576 8.16162 6.28662 7.53076 7.06201 7.53076C7.8374 7.53076 8.46826 8.16162 8.46826 8.93701C8.46826 9.7124 7.8374 10.3433 7.06201 10.3433Z" fill="#E23D3D"/>
<path d="M12.986 7.53125H16C15.7644 3.51172 12.4883 0.235596 8.46875 0V3.01404C10.704 3.5437 12.4563 5.29602 12.986 7.53125Z" fill="#E23D3D"/>
<path d="M7.0625 8.46875C6.80383 8.46875 6.59375 8.67883 6.59375 8.9375C6.59375 9.19617 6.80383 9.40625 7.0625 9.40625C7.32117 9.40625 7.53125 9.19617 7.53125 8.9375C7.53125 8.67883 7.32117 8.46875 7.0625 8.46875Z" fill="#E23D3D"/>
<path d="M12.2064 8.46875L12.1405 8.07776C11.7761 5.91943 10.0806 4.22388 7.92224 3.8595L7.53125 3.79358V1.93933C7.37463 1.92908 7.21838 1.90625 7.0625 1.90625C3.1853 1.90625 0 5.0603 0 8.9375C0 12.8147 3.1853 16 7.0625 16C10.9397 16 14.0938 12.8147 14.0938 8.9375C14.0938 8.78162 14.0709 8.62537 14.0607 8.46875H12.2064ZM7.0625 13.1562C4.73621 13.1562 2.84375 11.2638 2.84375 8.9375C2.84375 6.61121 4.73621 4.71875 7.0625 4.71875C9.38879 4.71875 11.2812 6.61121 11.2812 8.9375C11.2812 11.2638 9.38879 13.1562 7.0625 13.1562Z" fill="#E23D3D"/>
</svg>
