<svg width="58" height="58" viewBox="0 0 58 58" fill="none" xmlns="http://www.w3.org/2000/svg">
<path d="M57.3893 10.5303L55.9993 16.7303L54.4993 23.4203L52.9993 30.1203L51.9093 34.9803C51.8322 35.326 51.5779 35.6051 51.2408 35.7141C50.9038 35.823 50.5342 35.7455 50.2693 35.5103C48.8879 34.1946 47.2213 33.2158 45.3993 32.6503C43.1502 32.0183 40.7976 31.8415 38.4793 32.1303C36.0155 32.4215 33.5712 32.859 31.1593 33.4403C28.7463 34.0135 26.3022 34.4476 23.8393 34.7403C21.521 35.0291 19.1684 34.8523 16.9193 34.2203V34.2103C14.5217 33.4577 12.3997 32.014 10.8193 30.0603L12.3193 23.3703L13.8293 16.6703L15.3293 9.98027L16.8293 3.28027C18.4093 5.23663 20.5312 6.68364 22.9293 7.44027C25.1751 8.0719 27.5244 8.24869 29.8393 7.96027C32.3029 7.67244 34.7473 7.23834 37.1593 6.66027C39.576 6.08787 42.0233 5.65383 44.4893 5.36027C46.8043 5.07185 49.1536 5.24864 51.3993 5.88027C53.632 6.57276 55.6269 7.875 57.1593 9.64027C57.3759 9.88204 57.4616 10.2139 57.3893 10.5303Z" fill="#E6E7E8"/>
<path d="M21.4301 14.1405C20.9201 16.3705 20.4201 18.5905 19.9201 20.8205C17.5255 20.0675 15.4068 18.6237 13.8301 16.6705L15.3301 9.98047C16.9101 11.9368 19.0319 13.3838 21.4301 14.1405Z" fill="#2C2F38"/>
<path d="M18.4193 27.5201C18.3193 27.9701 18.2193 28.4101 18.1193 28.8601C17.7193 30.6501 17.3193 32.4335 16.9193 34.2101C14.5217 33.4576 12.3997 32.0139 10.8193 30.0601L12.3193 23.3701C13.8968 25.327 16.0199 26.7714 18.4193 27.5201Z" fill="#2C2F38"/>
<path d="M29.8397 7.96043C29.3397 10.1904 28.8397 12.4304 28.3397 14.6604C26.0247 14.9492 23.6754 14.7724 21.4297 14.1404C21.9197 11.9104 22.4297 9.67043 22.9297 7.44043C25.1754 8.07206 27.5247 8.24885 29.8397 7.96043Z" fill="#2C2F38"/>
<path d="M32.6598 26.7402C32.5598 27.1902 32.4598 27.6302 32.3598 28.0802C31.9598 29.8702 31.5598 31.6502 31.1598 33.4402C28.7468 34.0135 26.3027 34.4475 23.8398 34.7402C24.2398 32.9502 24.6398 31.1702 25.0398 29.3802C25.1398 28.9302 25.2398 28.4902 25.3398 28.0402C27.8025 27.7458 30.2464 27.3118 32.6598 26.7402Z" fill="#2C2F38"/>
<path d="M44.4902 5.36133L42.9902 12.0513C40.5232 12.3435 38.0756 12.7809 35.6602 13.3613C36.1602 11.1313 36.6602 8.89133 37.1602 6.66133C39.5768 6.08892 42.0241 5.65488 44.4902 5.36133Z" fill="#2C2F38"/>
<path d="M46.8995 25.9712C46.7995 26.4112 46.6995 26.8612 46.5995 27.3012C46.1995 29.0812 45.7995 30.8712 45.3995 32.6512C43.1504 32.0192 40.7978 31.8424 38.4795 32.1312C38.8795 30.3512 39.2795 28.5612 39.6795 26.7812C39.7795 26.3312 39.8795 25.8912 39.9795 25.4412C42.2983 25.151 44.6519 25.3313 46.8995 25.9712Z" fill="#2C2F38"/>
<path d="M54.4994 23.4205L52.9994 30.1205C51.419 28.1667 49.297 26.7231 46.8994 25.9705C47.3994 23.7405 47.8994 21.5072 48.3994 19.2705C50.797 20.0231 52.9191 21.4667 54.4994 23.4205Z" fill="#2C2F38"/>
<path d="M57.3894 10.5309L55.9994 16.7309C54.4191 14.7771 52.297 13.3334 49.8994 12.5809C50.3994 10.3509 50.8994 8.11753 51.3994 5.88086C53.6321 6.57334 55.627 7.87559 57.1594 9.64086C57.376 9.88262 57.4617 10.2144 57.3894 10.5309Z" fill="#2C2F38"/>
<path d="M49.9002 12.5806L48.4002 19.2706C46.156 18.6307 43.8058 18.4504 41.4902 18.7406L42.9902 12.0506C45.3058 11.7604 47.656 11.9407 49.9002 12.5806Z" fill="#2C2F38"/>
<path d="M26.8389 21.3503L25.3389 28.0403C23.0209 28.3391 20.6663 28.1622 18.4189 27.5203C18.9189 25.2903 19.4189 23.0503 19.9189 20.8203C22.1665 21.4606 24.5201 21.6409 26.8389 21.3503Z" fill="#2C2F38"/>
<path d="M35.6598 13.3604C35.1598 15.5904 34.6598 17.8104 34.1598 20.0404C31.7478 20.6208 29.3035 21.0582 26.8398 21.3504L28.3398 14.6604C30.8026 14.3668 33.2466 13.9327 35.6598 13.3604Z" fill="#2C2F38"/>
<path d="M41.4892 18.7412C40.9792 20.9712 40.4792 23.2112 39.9792 25.4412C37.5163 25.7339 35.0723 26.168 32.6592 26.7412C33.1592 24.5112 33.6592 22.2712 34.1592 20.0412C36.5758 19.4688 39.0231 19.0348 41.4892 18.7412Z" fill="#2C2F38"/>
<path d="M17.8797 2.77053C17.8762 2.97234 17.8528 3.17332 17.8097 3.37053L6.03975 55.8605C5.88161 56.5713 5.44637 57.1896 4.83059 57.5782C4.2148 57.9668 3.4694 58.0936 2.75975 57.9305L2.65975 57.9005C1.23576 57.5288 0.360932 56.0973 0.679748 54.6605L12.4497 2.16053C12.7865 0.685036 14.2529 -0.240414 15.7297 0.0905268H15.7497C16.9947 0.382783 17.8761 1.49172 17.8797 2.77053Z" fill="#AF8066"/>
<path d="M17.8802 2.77082C17.8766 2.97264 17.8532 3.17361 17.8102 3.37082L6.04016 55.8608C5.88202 56.5716 5.44678 57.1899 4.83099 57.5785C4.21521 57.9671 3.46981 58.0939 2.76016 57.9308L2.66016 57.9008L15.7502 0.0908203C16.9951 0.383076 17.8765 1.49201 17.8802 2.77082Z" fill="#7F5B53"/>
</svg>
