<svg width="10" height="12" viewBox="0 0 10 12" fill="none" xmlns="http://www.w3.org/2000/svg">
<path d="M8.69637 1.47967H8.63802V1.22061C8.63802 0.547547 8.09047 0 7.41741 0H5.5319C4.85884 0 4.31129 0.547547 4.31129 1.22061V1.47967H3.58631C3.46788 1.47967 3.35433 1.52671 3.2705 1.61043L0.849706 4.03128C0.765991 4.11506 0.718953 4.2286 0.718953 4.34709V11.3439C0.718953 11.7057 1.01327 12.0001 1.3751 12.0001H8.69643C9.0582 12.0001 9.35258 11.7057 9.35258 11.3439V2.13577C9.35246 1.77399 9.05814 1.47967 8.69637 1.47967ZM5.20436 1.22061C5.20436 1.04008 5.35131 0.893127 5.53184 0.893127H7.41735C7.59788 0.893127 7.74483 1.04008 7.74483 1.22061V1.47967H5.20436V1.22061ZM0.789331 3.18954C0.670902 3.18954 0.557297 3.1425 0.473521 3.05872L0.130799 2.71594C-0.0435995 2.54154 -0.0435995 2.25878 0.130799 2.08444L1.42583 0.789406C1.50961 0.70569 1.62315 0.658652 1.74164 0.658652C1.86007 0.658652 1.97368 0.70569 2.05745 0.789465L2.40018 1.13225C2.57457 1.30665 2.57457 1.58941 2.40018 1.76375L1.10514 3.05878C1.02131 3.1425 0.90776 3.18954 0.789331 3.18954Z" fill="#FFBB56"/>
</svg>
