<svg width="55" height="58" viewBox="0 0 55 58" fill="none" xmlns="http://www.w3.org/2000/svg">
<path d="M19.1021 38.3393C18.7947 38.0318 18.6044 37.607 18.6045 37.1377V30.7295C18.6045 29.791 19.3652 29.0303 20.3037 29.0303C21.2421 29.0302 22.0029 29.791 22.0029 30.7295V37.1377C22.0029 38.0762 21.2422 38.8369 20.3037 38.8369C19.8344 38.837 19.4097 38.6468 19.1021 38.3393Z" fill="#08475E"/>
<path d="M1.69922 58.0001C0.760797 58.0001 0 57.2393 0 56.3009V45.7414C0 43.4719 0.88382 41.3384 2.48856 39.7338L5.4844 36.7379C6.14789 36.0743 7.22383 36.0743 7.88743 36.7379C8.55103 37.4015 8.55103 38.4774 7.88743 39.141L4.8916 42.1369C3.92871 43.0998 3.39844 44.3799 3.39844 45.7415V56.3009C3.39844 57.2393 2.63764 58.0001 1.69922 58.0001Z" fill="#0A789B"/>
<path d="M0.0849609 44.541C0.0294531 44.9355 0 45.3363 0 45.7419V56.3014C0 57.2398 0.760797 58.0006 1.69922 58.0006C2.63764 58.0006 3.39844 57.2398 3.39844 56.3014V45.7419C3.39844 44.3802 3.92871 43.1002 4.8916 42.1373L7.88743 39.1413C8.55103 38.4777 8.55103 37.4019 7.88743 36.7383L0.0849609 44.541Z" fill="#08475E"/>
<path d="M33.1678 19.0666L27.1602 13.0589L34.6616 5.55746C38.2203 1.99896 43.0468 -0.000226543 48.0796 1.92547e-08L50.9685 0.000113301C51.905 1.9254e-08 52.6673 0.76227 52.6676 1.69922V6.79631C52.6676 7.73473 51.9069 8.49553 50.9685 8.49553L48.0788 8.49575C45.28 8.49575 42.6489 9.58575 40.6698 11.5648L33.1678 19.0666Z" fill="#FFFBF4"/>
<path d="M50.9687 0.000113281L48.08 0C46.7762 0 45.4865 0.135145 44.2288 0.395918L29.3633 15.2617L33.1683 19.0667L40.6702 11.5648C42.6492 9.58575 45.2804 8.49575 48.0792 8.49575L50.9688 8.49553C51.9073 8.49541 52.668 7.73473 52.668 6.79631V1.69922C52.6677 0.76227 51.9053 0 50.9687 0.000113281Z" fill="#FFE7CB"/>
<path d="M37.1993 29.6498L35.5973 20.0376C35.539 19.6882 35.3731 19.3658 35.1227 19.1154L27.1125 11.1051C26.4489 10.4415 25.3731 10.4415 24.7095 11.1051L21.9059 13.9087L19.9033 11.9061C19.2397 11.2425 18.1638 11.2425 17.5002 11.9061L10.291 19.1154C9.73968 19.6667 9.63433 20.5225 10.0355 21.1911L11.756 24.0585L2.2809 33.5338C1.6173 34.1974 1.6173 35.2732 2.2809 35.9368L11.0921 44.7481C14.4048 48.0607 19.7949 48.0606 23.1074 44.7481L36.7247 31.1308C37.1127 30.7427 37.2895 30.1911 37.1993 29.6498ZM13.4952 42.345L12.2936 41.1435L20.6393 32.7978L27.0475 36.0018L20.7043 42.345C18.7168 44.3326 15.4827 44.3326 13.4952 42.345Z" fill="#FF7D47"/>
<path d="M35.5967 20.0371C35.5385 19.6878 35.3725 19.3654 35.1221 19.1149L30.3159 14.3086L5.48438 39.1405L11.0915 44.7476C14.4041 48.0603 19.7942 48.0602 23.1067 44.7476L36.7241 31.1303C37.112 30.7423 37.2888 30.1907 37.1986 29.6495L35.5967 20.0371ZM20.7037 42.3446C18.7162 44.3321 15.4821 44.3322 13.4945 42.3446L12.2929 41.143L20.6386 32.7973L27.0468 36.0014L20.7037 42.3446Z" fill="#FF405C"/>
<path d="M51.7695 34.0977C48.3341 34.0977 45.5391 31.3027 45.5391 27.8672C45.5391 26.9995 45.7977 25.4 48.0341 21.5448C49.1873 19.557 50.3236 17.9082 50.3714 17.839C50.6887 17.3797 51.2113 17.1055 51.7695 17.1055C52.3278 17.1055 52.8503 17.3796 53.1676 17.839C53.2155 17.9082 54.3518 19.557 55.505 21.5448C57.7414 25.4 58 26.9995 58 27.8672C58 31.3027 55.205 34.0977 51.7695 34.0977Z" fill="#0A789B"/>
<path d="M55.505 21.5448C54.3518 19.557 53.2155 17.9082 53.1676 17.839C52.8503 17.3797 52.3278 17.1055 51.7695 17.1055V34.0977C55.205 34.0977 58 31.3027 58 27.8672C58 26.9995 57.7414 25.4 55.505 21.5448Z" fill="#08475E"/>
</svg>
