<svg width="56" height="56" viewBox="0 0 56 56" fill="none" xmlns="http://www.w3.org/2000/svg">
<g clip-path="url(#clip0)">
<path d="M52.9977 38.0126L52.4937 43.7973C52.3225 45.7619 46.9409 46.9427 40.5013 46.3816C34.0618 45.8206 29.0698 43.791 29.241 41.8264L29.2981 41.1716L29.5883 36.5779L29.6428 36.5827C30.3686 38.3505 35.0569 40.0787 40.8415 40.5827C46.6262 41.0867 52.7173 39.9679 52.8885 38.0032L52.9977 38.0127L52.9977 38.0126Z" fill="#E2A63B"/>
<path d="M42.8664 15.4642L42.3671 21.1943L42.258 21.1848C42.082 23.204 36.5415 24.3159 30.1565 23.7596C27.696 23.6002 25.2094 23.1086 22.8605 22.2991L22.7418 22.3987C21.6268 21.3118 20.329 20.429 18.8984 19.8095L18.9079 19.7003L19.272 13.6285C19.4923 15.5172 24.4392 17.4328 30.606 17.9701C36.7727 18.5074 42.5861 17.4193 42.7572 15.4547L42.8664 15.4642Z" fill="#F4B844"/>
<path d="M42.8561 15.5742C42.6849 17.5388 37.1444 18.6507 30.7048 18.0896C24.2652 17.5286 19.5366 15.6319 19.3163 13.7432C19.321 13.6887 19.276 13.5748 19.2808 13.5201C19.452 11.5555 24.8336 10.3748 31.3278 10.9406C37.8265 11.4519 43.032 13.555 42.8561 15.5742Z" fill="#FEDB41"/>
<path d="M29.6432 36.5821L29.6933 35.3768L30.0121 30.4558C30.2324 32.3445 35.1793 34.2601 41.3461 34.7974C47.5128 35.3347 53.108 34.2276 53.4381 32.3318L53.4926 32.3365L52.9981 38.0121L52.8889 38.0026C52.7178 39.9672 47.2815 41.1432 40.842 40.5822C34.4025 40.021 30.3691 38.35 29.6432 36.5821Z" fill="#F4B844"/>
<path d="M21.5206 39.5578C23.1129 38.3218 24.4111 36.6753 25.1777 34.8176L25.4506 34.8414C26.6417 35.0552 27.8375 35.2143 29.1473 35.3284L29.693 35.376L29.5884 36.5766L29.2981 41.1702L28.6978 41.1179C26.2918 40.9632 23.969 40.4859 21.67 39.7358L21.5206 39.5578Z" fill="#E2A63B"/>
<path d="M30.2138 30.0337L30.19 30.3065L29.857 35.3913L29.3112 35.3438C27.9469 35.2249 26.6964 35.061 25.5054 34.8473L25.2326 34.8235C25.7144 33.7108 25.9827 32.5244 26.0873 31.3238C26.1586 30.5052 26.116 29.7317 26.0189 28.9535L26.2918 28.9772C27.4282 29.1862 28.5696 29.3406 29.8247 29.45L30.2921 29.7656C30.228 29.8699 30.2185 29.9791 30.2138 30.0337Z" fill="#F4B844"/>
<path d="M22.8597 22.2996C25.2086 23.1091 27.6951 23.6006 30.1557 23.7601C36.5407 24.3164 42.0813 23.2045 42.2573 21.1853L42.3664 21.1948L41.8054 27.6344C35.8569 27.1161 30.8763 28.1118 30.1191 29.8603L29.6517 29.5447C28.4511 29.4401 27.3099 29.2857 26.228 29.0815L25.9551 29.0577C25.6827 26.5045 24.5679 24.153 22.7459 22.3446L22.8597 22.2996Z" fill="#E2A63B"/>
<path d="M26.0641 29.0667C25.7371 26.5088 24.5724 24.0979 22.7552 22.235C21.6497 21.0389 20.2974 20.1513 18.8074 19.5816C17.7493 19.1045 16.5629 18.8362 15.4169 18.7364C8.92749 18.1158 3.1822 22.839 2.56185 29.3284C1.94151 35.8177 6.66463 41.563 13.1541 42.1833C16.1556 42.4448 19.0884 41.6006 21.5018 39.7764C23.1535 38.4906 24.4564 36.7896 25.2279 34.8772C25.7097 33.7645 25.9732 32.6327 26.0779 31.4321C26.1445 30.6683 25.9975 29.8307 26.0641 29.0667Z" fill="#FEDB41"/>
<path d="M53.4483 32.2226L53.4388 32.3318C53.1087 34.2276 47.6773 35.349 41.3468 34.7974C35.0164 34.2459 30.2332 32.3445 30.0129 30.4558L30.0366 30.1829C30.0462 30.0738 30.0557 29.9646 30.1197 29.8602C30.8769 28.1116 35.8575 27.116 41.8059 27.6342L41.9696 27.6485C48.4093 28.2095 53.6195 30.258 53.4483 32.2226Z" fill="#FEDB41"/>
<path d="M14.5239 28.9953C13.5416 28.9097 12.7943 28.0198 12.8799 27.0375C12.9654 26.0552 13.8554 25.3079 14.8377 25.3935C15.82 25.4791 16.5673 26.369 16.4817 27.3513C16.4294 27.9516 16.8777 28.4855 17.478 28.5379C18.0784 28.5902 18.6123 28.1418 18.6646 27.5415C18.8167 25.7952 17.754 24.108 16.1051 23.4695L16.1431 23.0328C16.1954 22.4325 15.747 21.8986 15.1467 21.8463C14.5464 21.794 14.0125 22.2423 13.9602 22.8426L13.9221 23.2793C12.1378 23.5637 10.7993 25.0417 10.6969 26.8473C10.5068 29.0302 12.1508 30.988 14.3337 31.1782C15.316 31.2638 16.0633 32.1537 15.9777 33.136C15.8921 34.1183 15.0022 34.8656 14.0199 34.78C13.0376 34.6945 12.2903 33.8045 12.3758 32.8222C12.4282 32.2219 11.9798 31.688 11.3795 31.6357C10.7792 31.5834 10.2452 32.0317 10.1929 32.632C10.036 34.4329 11.1035 36.0655 12.7525 36.7041L12.6764 37.5772C12.6241 38.1775 13.0725 38.7115 13.6728 38.7638C14.2731 38.8161 14.807 38.3677 14.8593 37.7674L14.9354 36.8943C17.116 36.4794 18.5115 34.3466 18.0421 32.1611C17.6936 30.4812 16.2701 29.1475 14.5239 28.9953Z" fill="#E2A63B"/>
</g>
<defs>
<clipPath id="clip0">
<rect width="51" height="51" fill="white" transform="translate(5.08398 0.376953) rotate(4.97947)"/>
</clipPath>
</defs>
</svg>
