<svg width="16" height="16" viewBox="0 0 16 16" fill="none" xmlns="http://www.w3.org/2000/svg">
<path d="M8 8.9375C8.25888 8.9375 8.46875 8.72763 8.46875 8.46875C8.46875 8.20987 8.25888 8 8 8C7.74112 8 7.53125 8.20987 7.53125 8.46875C7.53125 8.72763 7.74112 8.9375 8 8.9375Z" fill="#FFBB56"/>
<path d="M8 0C3.59506 0 0 3.59528 0 8C0 12.405 3.59528 16 8 16C12.405 16 16 12.4047 16 8C16 3.59506 12.4047 0 8 0ZM8 1.90625C11.0413 1.90625 13.5693 4.14587 14.0216 7.0625H12.396C11.3653 7.0625 10.3861 6.64891 9.70938 5.92778C8.78438 4.94197 7.21572 4.94166 6.29063 5.92775C5.61391 6.64891 4.63466 7.0625 3.60394 7.0625H1.97837C2.43066 4.14587 4.95866 1.90625 8 1.90625ZM8 9.875C7.22463 9.875 6.59375 9.24419 6.59375 8.46875C6.59375 7.69331 7.22463 7.0625 8 7.0625C8.77544 7.0625 9.40625 7.69331 9.40625 8.46875C9.40625 9.24419 8.77544 9.875 8 9.875ZM2.32562 10.2218C2.86219 10.0113 3.24962 9.875 3.78125 9.875C5.49025 9.875 6.81934 11.3979 6.56191 13.1091H6.56081C6.52256 13.371 6.44731 13.6248 6.33878 13.8636C4.50256 13.3427 3.01659 11.9804 2.32562 10.2218ZM9.66159 13.8635C9.55009 13.6183 9.47647 13.3646 9.43919 13.1091H9.43809C9.13813 11.1152 10.9787 9.46994 12.8867 9.95481C13.0878 10.0059 13.3395 10.0904 13.6743 10.2218C12.9834 11.9803 11.4976 13.3425 9.66159 13.8635Z" fill="#FFBB56"/>
</svg>
