<svg width="16" height="14" viewBox="0 0 16 14" fill="none" xmlns="http://www.w3.org/2000/svg">
<path d="M6.55371 10.6336C6.55371 11.4289 7.19843 12.0737 7.99377 12.0737C8.78912 12.0737 9.43384 11.429 9.43384 10.6336C9.43384 9.83831 8.83459 7 8.83459 7C8.83459 7 6.55371 9.83831 6.55371 10.6336Z" fill="#E23D3D"/>
<path d="M8.46973 0.99707V3.25307C9.17932 3.31029 9.85254 3.49604 10.4662 3.78704L11.5945 1.83285C10.6453 1.3557 9.58835 1.0617 8.46973 0.99707Z" fill="#E23D3D"/>
<path d="M13.7439 8.52709H15.9999C15.9353 7.40849 15.6413 6.35153 15.1642 5.40234L13.21 6.53059C13.5009 7.14428 13.6867 7.81749 13.7439 8.52709Z" fill="#E23D3D"/>
<path d="M7.53002 0.99707C6.41143 1.0617 5.35446 1.3557 4.40527 1.83282L5.53352 3.78701C6.14721 3.49601 6.82043 3.31026 7.53002 3.25304V0.99707Z" fill="#E23D3D"/>
<path d="M2.78994 6.53059L0.83575 5.40234C0.358594 6.35153 0.064625 7.40849 0 8.52709H2.256C2.31319 7.81749 2.49897 7.14428 2.78994 6.53059Z" fill="#E23D3D"/>
<path d="M13.7439 9.4668C13.6734 10.3404 13.4088 11.1592 12.9922 11.8792L14.9418 13.0049C15.5503 11.9532 15.9265 10.7505 16.0007 9.4668H13.7439Z" fill="#E23D3D"/>
<path d="M12.4066 2.30371L11.2783 4.25793C11.8487 4.65321 12.3442 5.14874 12.7395 5.71912L14.6937 4.59087C14.0944 3.68227 13.3151 2.90305 12.4066 2.30371Z" fill="#E23D3D"/>
<path d="M0 9.4668C0.0741875 10.7505 0.450406 11.9532 1.05887 13.0049L3.0085 11.8792C2.59184 11.1591 2.32722 10.3404 2.25675 9.4668H0Z" fill="#E23D3D"/>
<path d="M1.30664 4.58989L3.26083 5.71814C3.65611 5.14773 4.15164 4.65223 4.72202 4.25692L3.59377 2.30273C2.6852 2.90211 1.90598 3.68133 1.30664 4.58989Z" fill="#E23D3D"/>
</svg>
