<svg width="14" height="14" viewBox="0 0 14 14" fill="none" xmlns="http://www.w3.org/2000/svg">
<g clip-path="url(#clip0)">
<path d="M13.7134 0.00122188C10.9805 -0.0477781 7.86377 1.38081 5.89093 3.59689C4.0056 3.63247 2.16985 4.40539 0.818266 5.75697C0.739516 5.83456 0.711516 5.95064 0.745933 6.05564C0.780933 6.16122 0.871933 6.23764 0.9816 6.25339L3.22977 6.57539L2.9521 6.88631C2.84885 7.00181 2.8541 7.17739 2.96377 7.28706L6.71285 11.0361C6.76943 11.0927 6.8441 11.1213 6.91935 11.1213C6.98877 11.1213 7.05818 11.0968 7.1136 11.0472L7.42452 10.7696L7.74652 13.0177C7.76227 13.1274 7.8486 13.2079 7.95302 13.2429C7.97985 13.2516 8.00785 13.2557 8.03643 13.2557C8.11927 13.2557 8.20385 13.2196 8.26218 13.1618C9.5951 11.8289 10.368 9.99314 10.4036 8.10781C12.622 6.13089 14.0623 3.01531 13.9987 0.285889C13.9946 0.130722 13.8692 0.00530521 13.7134 0.00122188ZM11.0254 5.03656C10.7414 5.32064 10.368 5.46297 9.9941 5.46297C9.62018 5.46297 9.24685 5.32064 8.96277 5.03656C8.3946 4.46781 8.3946 3.54264 8.96277 2.97389C9.53152 2.40514 10.4567 2.40514 11.0254 2.97389C11.5942 3.54264 11.5942 4.46839 11.0254 5.03656Z" fill="#8CFF9F"/>
<path d="M1.58903 9.86095C0.964867 10.4851 0.10795 13.305 0.0122835 13.624C-0.0186332 13.7267 0.00995015 13.8381 0.0852002 13.914C0.1412 13.97 0.215283 13.9997 0.2917 13.9997C0.3197 13.9997 0.3477 13.9956 0.3757 13.9875C0.694784 13.8918 3.51462 13.0349 4.13878 12.4107C4.8417 11.7078 4.8417 10.5639 4.13878 9.86095C3.43528 9.15804 2.29195 9.15862 1.58903 9.86095Z" fill="#8CFF9F"/>
</g>
<defs>
<clipPath id="clip0">
<rect width="14" height="14" rx="2" fill="white"/>
</clipPath>
</defs>
</svg>
