<svg width="20" height="12" viewBox="0 0 20 12" fill="none" xmlns="http://www.w3.org/2000/svg">
<path d="M18.6868 3.69673H18.3071L19.2956 1.98677C19.4809 1.66647 19.3709 1.25621 19.0501 1.07102C18.7301 0.884681 18.319 0.995457 18.1344 1.31589L16.9678 3.33345L14.5777 1.28737C14.456 1.18362 14.3015 1.12631 14.1418 1.12631H8.22789C8.08001 1.12631 7.93591 1.17544 7.81872 1.26574L4.31585 3.96749L3.00073 3.95242C1.76868 3.95242 0.708225 4.78963 0.422803 5.98863L0.0319432 7.62689C-0.0505138 7.97503 0.0280907 8.33737 0.251265 8.62381C0.473831 8.90599 0.807106 9.06928 1.1664 9.07158L3.62916 9.08557C3.91587 10.1959 4.9259 11.0187 6.12463 11.0187C7.31472 11.0187 8.31954 10.2067 8.61281 9.10733C9.74003 9.11084 10.8581 9.11314 11.8754 9.11314L12.3029 9.11287C12.5988 10.2093 13.6017 11.0187 14.7905 11.0187C16.0866 11.0187 17.1622 10.0565 17.3402 8.80879L18.9781 8.43699C19.5796 8.3004 20 7.77382 20 7.15682V5.00962C20 4.28563 19.4109 3.69673 18.6868 3.69673Z" fill="#3D7FE2"/>
</svg>
